<svg xmlns="http://www.w3.org/2000/svg" xmlns:xlink="http://www.w3.org/1999/xlink" width="144" height="90" viewBox="0 0 144 90">
  <defs>
    <clipPath id="clip-path">
      <rect id="사각형_67" data-name="사각형 67" width="144" height="90" transform="translate(272 8648)" fill="#868686"/>
    </clipPath>
    <clipPath id="clip-path-2">
      <rect id="사각형_60" data-name="사각형 60" width="90.126" height="90.126" transform="translate(0 0)" fill="none"/>
    </clipPath>
  </defs>
  <g id="logo" transform="translate(-272 -8648)" clip-path="url(#clip-path)">
    <g id="그룹_50" data-name="그룹 50" transform="translate(298.856 8648.027)" clip-path="url(#clip-path-2)">
      <path id="패스_34" data-name="패스 34" d="M-717728000-717728000Z" fill="#111"/>
    </g>
    <g id="그룹_51" data-name="그룹 51" transform="translate(298.856 8648.027)" clip-path="url(#clip-path-2)">
      <path id="패스_35" data-name="패스 35" d="M-717728000-717728000Z" fill="#111"/>
    </g>
    <g id="그룹_52" data-name="그룹 52" transform="translate(298.856 8648.027)" clip-path="url(#clip-path-2)">
      <path id="패스_36" data-name="패스 36" d="M-717728000-717728000Z" fill="#111"/>
    </g>
    <path id="패스_37" data-name="패스 37" d="M109.5,194.733H94.772v2.161h13.8a.648.648,0,0,1,.647.648v6.91H94.772v2.159h7.222v5.4h2.439v-5.4h7.222v-9.713a2.159,2.159,0,0,0-2.159-2.159m-95.21,0H-.438v2.161h13.8a.648.648,0,0,1,.647.648v6.91H-.438v2.159H6.784v5.4H9.223v-5.4h7.221v-9.713a2.159,2.159,0,0,0-2.159-2.159M18.6,203.37v2.159h14.27a.642.642,0,0,1-.475,1.08H18.6v3.239a2.159,2.159,0,0,0,2.159,2.159H35.487v-2.159H21.692a.642.642,0,0,1-.475-1.08H33.33a2.159,2.159,0,0,0,2.159-2.159V203.37Zm0-3.244H35.484v2.159H18.6Zm5.135-1.33a7.7,7.7,0,0,0,1.931-.9,4.7,4.7,0,0,0,1.366-1.385,3.99,3.99,0,0,0,1.3,1.385,7.662,7.662,0,0,0,1.932.9,12.475,12.475,0,0,0,2.426.486,25.379,25.379,0,0,0,2.77.144V197.28q-1.172,0-2.278-.08a10.127,10.127,0,0,1-2.032-.345,5.74,5.74,0,0,1-1.637-.779,3.081,3.081,0,0,1-1.073-1.346l-2.83.018a3.252,3.252,0,0,1-1.094,1.346,5.423,5.423,0,0,1-1.635.757,10.234,10.234,0,0,1-2.025.345c-.725.053-1.475.08-2.245.08v2.146a24.758,24.758,0,0,0,2.732-.144,12.078,12.078,0,0,0,2.381-.486m54.16,4.576H88.23v-2.158H78.817a.648.648,0,0,1-.647-.648v-3.669h8.765v-2.16H75.73v6.477a2.159,2.159,0,0,0,2.159,2.159m13.644-5.4v-3.239H89.094v8.635h2.439V200.13h2.159v-2.159Zm-2.912,6.478H79.51a3.778,3.778,0,1,0,0,7.556h9.111a3.777,3.777,0,1,0,0-7.554m-.281,5.4H79.789a1.619,1.619,0,0,1,0-3.238h8.55a1.619,1.619,0,1,1,0,3.238m41.279-11.877v-3.239h-2.439v8.635h2.439V200.13h2.159v-2.159ZM126.7,204.45h-9.111a3.779,3.779,0,1,0,0,7.558H126.7a3.779,3.779,0,1,0,0-7.558m-.281,5.4h-8.55a1.619,1.619,0,1,1,0-3.239h8.549a1.619,1.619,0,0,1,0,3.239M113.8,194.731h12.09v2.159H113.8Zm.016,8.639c1.73,0,4.547-.644,6.043-2.719,1.5,2.071,4.315,2.719,6.045,2.719v-2.159c-4.277-.026-4.825-2.813-4.892-3.671H118.7c-.067.856-.614,3.644-4.887,3.671v2.159ZM72.491,201.21v-6.477H70.052v17.272h2.439v-8.636H74.65V201.21Zm-10.513-6.477a5.305,5.305,0,0,0-5.29,5.29v6.693a5.289,5.289,0,1,0,10.578,0v-6.693a5.305,5.305,0,0,0-5.289-5.29M64.827,207a2.849,2.849,0,1,1-5.694,0v-7.254a2.849,2.849,0,0,1,5.694,0ZM52.089,194.733H37.645v6.477a2.159,2.159,0,0,0,2.16,2.159h11.42V201.21H40.733a.648.648,0,0,1-.648-.647v-3.669h12v6.477h2.439v-8.635Zm-4.782,9.716H44.867v5.4H37.645v2.16H54.528v-2.16H47.306Z" transform="translate(278.089 8495.157)" fill="#302d2c"/>
    <path id="패스_38" data-name="패스 38" d="M21.15,148.931a10.795,10.795,0,1,1-10.793-10.794A10.795,10.795,0,0,1,21.15,148.931" transform="translate(278.09 8521.819)" fill="#005726"/>
    <path id="패스_39" data-name="패스 39" d="M67.15,148.931a10.794,10.794,0,1,1-10.795-10.794A10.794,10.794,0,0,1,67.15,148.931" transform="translate(256.416 8521.819)" fill="#b40019"/>
    <path id="패스_40" data-name="패스 40" d="M113.144,148.931a10.795,10.795,0,1,1-10.795-10.794,10.794,10.794,0,0,1,10.795,10.794" transform="translate(234.747 8521.819)" fill="#00267f"/>
    <path id="패스_41" data-name="패스 41" d="M18.215,247.661h-2.35v4.6H13.483V240.046h4.735a3.813,3.813,0,1,1,0,7.615m-.12-5.487H15.864v3.343h2.23a1.674,1.674,0,1,0,0-3.343m11.96,10.083-2.381-4.871H25.956v4.871H23.574V240.046H28.36a3.691,3.691,0,0,1,3.962,3.738,3.288,3.288,0,0,1-2.23,3.209l2.727,5.266ZM28.2,242.173H25.955V245.4H28.2a1.616,1.616,0,1,0,0-3.225m13.3,8.849a4.744,4.744,0,0,1-6.6,0c-1.234-1.234-1.2-2.762-1.2-4.866s-.035-3.637,1.2-4.871a4.744,4.744,0,0,1,6.6,0c1.234,1.234,1.218,2.761,1.218,4.871s.016,3.636-1.218,4.866m-1.766-8.3a1.982,1.982,0,0,0-1.526-.652,2.018,2.018,0,0,0-1.544.652c-.463.518-.582,1.08-.582,3.43s.119,2.916.583,3.43a2.02,2.02,0,0,0,1.544.652,1.983,1.983,0,0,0,1.526-.652c.462-.518.6-1.081.6-3.43s-.137-2.916-.6-3.43m78.375,6.86a1.982,1.982,0,0,1-1.526.652,2.018,2.018,0,0,1-1.544-.652c-.463-.518-.582-1.081-.582-3.43s.119-2.916.583-3.43a2.021,2.021,0,0,1,1.544-.652,1.985,1.985,0,0,1,1.526.652c.378.421.538.878.584,2.316h2.392a4.942,4.942,0,0,0-1.209-3.756,4.744,4.744,0,0,0-6.6,0c-1.234,1.234-1.2,2.761-1.2,4.866s-.035,3.637,1.2,4.871a4.744,4.744,0,0,0,6.6,0c1.027-1.027,1.187-2.262,1.211-3.86H118.7c-.041,1.517-.2,1.989-.587,2.419m-50.8,0a1.982,1.982,0,0,1-1.526.652,2.018,2.018,0,0,1-1.544-.652c-.463-.518-.582-1.081-.582-3.43s.119-2.916.582-3.43a2.021,2.021,0,0,1,1.544-.652,1.985,1.985,0,0,1,1.526.652c.378.421.538.878.584,2.316h2.392a4.941,4.941,0,0,0-1.209-3.756,4.744,4.744,0,0,0-6.6,0c-1.234,1.234-1.2,2.761-1.2,4.866s-.035,3.637,1.2,4.871a4.744,4.744,0,0,0,6.6,0c1.027-1.027,1.186-2.262,1.211-3.86H67.9c-.042,1.517-.2,1.989-.587,2.419m-21.64,2.783a4,4,0,0,1-3.138-1.253l1.578-1.559a1.947,1.947,0,0,0,1.56.685c1.167,0,1.922-.685,1.922-2.093v-8.1h2.381v8.2a4.025,4.025,0,0,1-4.3,4.117m6.316-.1V240.046h8.044v2.127H54.373v2.865h4.82v2.126h-4.82v2.967h5.66v2.128Zm23.973-10.084v10.084H73.58V242.173H70.386v-2.127h8.764v2.127Zm11.1,10.188a5.736,5.736,0,0,1-4.46-1.613l1.545-1.544a3.991,3.991,0,0,0,2.95,1.029c1.406,0,2.16-.532,2.16-1.509a1.363,1.363,0,0,0-.377-1.03,1.835,1.835,0,0,0-1.08-.429l-1.476-.207a4.141,4.141,0,0,1-2.366-1.013,3.222,3.222,0,0,1-.876-2.4c0-2.174,1.613-3.706,4.254-3.706a5.238,5.238,0,0,1,3.942,1.428l-1.509,1.493a3.4,3.4,0,0,0-2.5-.841c-1.269,0-1.886.7-1.886,1.544a1.182,1.182,0,0,0,.36.876,2.111,2.111,0,0,0,1.131.48l1.441.207a4.049,4.049,0,0,1,2.332.942,3.417,3.417,0,0,1,.944,2.588c0,2.367-1.973,3.706-4.528,3.706m10.832-4.7h-2.35v4.6H93.162V240.046H97.9a3.814,3.814,0,1,1,0,7.615m-.12-5.487h-2.23v3.343h2.23a1.674,1.674,0,1,0,0-3.343m24.659,10.083V240.046h8.044v2.127h-5.66v2.865h4.82v2.126h-4.82v2.967h5.66v2.128Zm-15.069-12.211H105.5l-4.443,12.211h2.485l.737-2.16.669-2.007,1.544-4.443,1.492,4.443.634,2.007.725,2.16h2.485ZM7.194,241.212a4.445,4.445,0,0,0-3.223-1.167H-.438v12.211H1.944V242.172h1.8a2.128,2.128,0,0,1,1.783.754c.447.549.518,1.321.518,3.172s-.068,2.728-.518,3.277a2.128,2.128,0,0,1-1.783.754H3.01v2.127h.959a4.453,4.453,0,0,0,3.223-1.166c1.378-1.372,1.238-3.155,1.238-4.989s.137-3.52-1.236-4.888" transform="translate(278.089 8473.863)" fill="#302d2c"/>
  </g>
</svg>
