<svg xmlns="http://www.w3.org/2000/svg" width="70" height="70" viewBox="0 0 70 70">
  <path id="패스_25" data-name="패스 25" d="M0,35A35,35,0,1,1,35.012,70,35,35,0,0,1,0,35Zm7.85,0A27.153,27.153,0,1,0,35.01,7.852,27.153,27.153,0,0,0,7.85,35ZM24.444,53.889c-1.157,0-1.6-.5-1.6-1.654V18.027c0-1.113.389-1.661,1.377-1.661H36.3c10.372,0,14.126,4.695,14.126,9.436V44.45c0,4.744-3.753,9.437-14.126,9.437Zm7.3-7.448H36.3c2.706,0,5.017-1.05,5.017-3.589V27.408c0-2.54-2.313-3.585-5.017-3.585H31.745Z" transform="translate(0 0)" fill="#626262"/>
</svg>
