<svg width="24" height="35" viewBox="0 0 24 35" fill="none" xmlns="http://www.w3.org/2000/svg">
<g clip-path="url(#clip0_145_11)">
<mask id="mask0_145_11" style="mask-type:luminance" maskUnits="userSpaceOnUse" x="0" y="0" width="24" height="35">
<path d="M24 0H0V35H24V0Z" fill="white"/>
</mask>
<g mask="url(#mask0_145_11)">
<path d="M13.0608 0.93934C12.475 0.353553 11.5252 0.353553 10.9394 0.93934L1.39344 10.4853C0.807655 11.0711 0.807655 12.0208 1.39344 12.6066C1.97922 13.1924 2.92897 13.1924 3.51476 12.6066L12.0001 4.12132L20.4854 12.6066C21.0712 13.1924 22.0209 13.1924 22.6067 12.6066C23.1925 12.0208 23.1925 11.0711 22.6067 10.4853L13.0608 0.93934ZM13.5001 35V2H10.5001V35H13.5001Z" fill="black"/>
</g>
</g>
<defs>
<clipPath id="clip0_145_11">
<rect width="24" height="35" fill="white"/>
</clipPath>
</defs>
</svg>
