<svg xmlns="http://www.w3.org/2000/svg" width="744.36359pt" height="150pt" viewBox="0 0 744.36359 150"><path d="M-2147483500-2147483500ZM-2147483500-2147483500Z" style="fill:#111" transform="matrix(11.25 0 0 -11.25 24159190000 -24159190000)"/><symbol id="a" transform="translate(-47.25 -398.655)" viewBox="0 0 668 502"><image width="668" height="502"/></symbol><path d="M0 150h146.185V.145H0ZM159.614 149.841h584.75V0h-584.75Z" style="stroke-width:4.68752"/><path d="M715.006 45.305h-9.01v59.175h9.01v13.49h-31.524v-13.49h9.052V48.005l-28.102 56.475-28.074-56.475v56.475h9.024v13.49h-31.51v-13.49h9.028V45.305h-9.028V31.819h29.583l20.982 42.188 20.99-42.188h29.583zM605.655 45.305h-9.023v43.003c0 17.113-13.873 30.985-30.985 30.985-17.112 0-30.985-13.872-30.985-30.985V45.305h-9.014V31.819h31.468v13.486h-9v43.031c0 9.672 7.84 17.513 17.512 17.513s17.513-7.84 17.513-17.513V45.305h-9.014V31.819h31.51zM517.408 54.282h-13.463v-8.977h-24.614V68.18h24.69v13.467h-24.69v22.838h24.614v-9h13.463v22.5h-60.52V104.48h8.985V45.305h-8.986V31.819h60.525zM446.551 92.686c-.61 15.272-13.46 27.172-28.734 26.607a30.001 30.001 0 0 1-17.813-5.714v4.448H386.56V90.141h13.463c.716 8.664 7.824 15.409 16.514 15.67a15.727 15.727 0 0 0 16.36-11.404c.09-.555.137-1.116.14-1.678a8.438 8.438 0 0 0-4.931-7.97 38.06 38.06 0 0 0-8.907-3.28s-3.548-.98-6.093-1.622a21.874 21.874 0 0 0-1.65-.418 84.053 84.053 0 0 1-9.985-2.985 22.093 22.093 0 0 1-4.36-2.18 21.417 21.417 0 0 1-9.81-15.427 17.96 17.96 0 0 1-.127-2.344h-.028v-1.978c0-13.21 12.155-23.906 27.127-23.906a29.6 29.6 0 0 1 16.073 4.64v-3.928h13.463v27.624h-13.477s-2.208-14.367-15.248-14.85a12.337 12.337 0 0 0-14.4 12.483 8.686 8.686 0 0 0 6.515 7.795c2.016.694 4.083 1.29 6.164 1.838 1.95.548 3.9 1.026 5.832 1.5 1.036.239 2.081.501 3.117.768a44.453 44.453 0 0 1 15.67 6.708 20.624 20.624 0 0 1 8.096 12.544c.325 1.584.492 3.197.497 4.814zM378.334 45.305h-9.01v43.003c0 17.113-13.872 30.985-30.984 30.985-17.113 0-30.985-13.872-30.985-30.985V45.305h-9.028V31.819h31.49v13.486h-8.99v43.031a17.513 17.513 0 1 0 35.02 0V45.305h-9.009V31.819h31.496zM290.114 45.305h-9.023v59.175h9.023v13.49H258.6v-13.49h9.028V48.005l-28.087 56.475-28.093-56.475v56.475h9.028v13.49h-31.5v-13.49h9.014V45.305h-9.014V31.819h29.597l20.963 42.188 20.981-42.188h29.597z" style="fill:#fff;stroke-width:4.68752"/><path d="M40.395 40.506v17.943H56.02v82.801H40.395v17.957h60.517c32.108-.932 57.652-27.23 57.652-59.352 0-32.12-25.544-58.417-57.652-59.35zm33.537 17.96h27.088c22.83.032 41.317 18.559 41.3 41.39h-.025c.017 22.831-18.469 41.36-41.3 41.394H73.931Z" style="fill:#fff;stroke-width:6.25003" transform="scale(.75)"/></svg>